<?xml version="1.0" encoding="UTF-8" standalone="no"?>
<svg
   xmlns:dc="http://purl.org/dc/elements/1.1/"
   xmlns:cc="http://creativecommons.org/ns#"
   xmlns:rdf="http://www.w3.org/1999/02/22-rdf-syntax-ns#"
   xmlns:svg="http://www.w3.org/2000/svg"
   xmlns="http://www.w3.org/2000/svg"
   id="svg23"
   version="1.1"
   viewBox="0 0 1099.8588 142.3752">
  <metadata
     id="metadata29">
    <rdf:RDF>
      <cc:Work
         rdf:about="">
        <dc:format>image/svg+xml</dc:format>
        <dc:type
           rdf:resource="http://purl.org/dc/dcmitype/StillImage" />
        <dc:title>Asset 2pl_</dc:title>
      </cc:Work>
    </rdf:RDF>
  </metadata>
  <defs
     id="defs27" />
  <title
     id="title2">Asset 2pl_</title>
  <g
     transform="matrix(0.6,0,0,0.6,219.97183,28.475042)"
     data-name="Layer 2"
     id="Layer_2">
    <g
       data-name="Layer 1"
       id="Layer_1-2">
      <g
         id="MjgMEh.tif">
        <path
           style="fill:#00334c"
           id="path4"
           d="m 905.3533,2.2243 c 15.824,0 31.6482,-0.0418 47.4717,0.0437 a 38.0246,38.0246 0 0 1 7.368,0.966 c 3.6427,0.7485 5.2509,3.2044 5.2256,6.8559 -0.1937,27.9773 0.6339,56.0129 -0.9734,83.9084 -0.8594,14.916 -7.02,28.9417 -21.1748,37.3823 -19.012,11.3371 -38.7647,13.5414 -60.0755,6.7328 -10.8144,-3.4551 -19.5616,-8.8247 -25.9745,-17.9122 -4.9948,-7.0779 -9.33,-14.8007 -9.451,-23.6521 -0.3936,-28.8109 -0.3789,-57.628 -0.3831,-86.4428 -9e-4,-5.9459 2.073,-7.773 8.4968,-7.8125 16.49,-0.1015 32.98,-0.0339 49.47,-0.0339 z m 0.163,99.0938 h 0.06 c 0,4.6617 -0.2789,9.3493 0.1512,13.9709 a 6.62,6.62 0 0 0 3.2609,4.3829 c 0.7235,0.3815 3.4587,-1.2988 3.9753,-2.575 2.5376,-6.2706 4.6411,-12.7172 6.887,-19.1055 0.7148,-2.0332 1.3528,-4.0941 2.1,-6.1149 3.1469,-8.5094 6.3518,-16.9975 9.4529,-25.5234 a 12.4352,12.4352 0 0 0 0.62,-3.9346 c 0.1136,-5.4339 -2.6917,-8.2694 -8.1638,-8.3231 -2.9971,-0.0294 -5.9971,0.0942 -8.9919,0.0092 -5.888,-0.1671 -6.9578,-1.2032 -7.0683,-7.1182 -0.1585,-8.4913 0.0227,-16.9963 -0.4344,-25.4688 -0.0991,-1.8356 -2.29,-3.5583 -3.5181,-5.333 -1.4925,1.348 -3.665,2.4162 -4.3556,4.0943 -2.51,6.0976 -4.514,12.4026 -6.7257,18.6235 -2.3227,6.533 -4.7461,13.0315 -6.9733,19.5968 -1.9031,5.61 -4.0157,11.2017 -5.2537,16.9693 -1.2336,5.7475 0.826,7.9529 6.7028,8.2734 4.486,0.2447 8.99,0.2153 13.4857,0.21 3.3328,-0.0041 4.8735,1.523 4.8079,4.8769 -0.0808,4.1612 -0.019,8.326 -0.019,12.4893 z" />
        <path
           style="fill:#00334c"
           id="path6"
           d="m 439.5643,70.925 q 0.001,-29.4895 0.0114,-58.979 c 0.0124,-7.6944 1.576,-9.5439 9.3476,-9.6232 17.4915,-0.1787 35.0038,-0.5042 52.4714,0.17 A 64.4679,64.4679 0 0 1 524.243,7.269 c 5.95,2.5912 10.669,8.1324 15.7357,12.5921 5.6618,4.9836 7.3394,12.3073 9.1234,19.0032 1.3732,5.1546 0.7023,11.2144 -0.4046,16.595 -2.391,11.6235 -9.2606,20.5136 -18.7045,27.6468 -4.05,3.0592 -1.7526,7.0073 -0.0286,10.3823 3.2978,6.456 6.7841,12.8179 10.2924,19.1634 2.8718,5.1941 6.1965,10.1631 8.7151,15.5167 1.2982,2.7592 2.1489,6.3471 1.48,9.1495 -0.3285,1.376 -4.5393,2.3785 -7.0649,2.5619 -5.3035,0.3851 -10.6545,0.1288 -15.9858,0.1147 -9.1284,-0.0242 -12.4993,-2.6441 -16.26,-10.8358 -2.665,-5.8057 -6.314,-11.1567 -9.4689,-16.7416 -2.512,-4.4467 -5.2306,-8.81 -7.3162,-13.4536 -1.69,-3.7639 -4.1782,-5.3707 -8.1418,-5.1619 -1.6613,0.0875 -3.3328,-0.0342 -4.9965,0.0259 -5.8342,0.2109 -7.4567,1.76 -7.5019,7.5161 -0.0757,9.6627 0.004,19.3264 -0.0389,28.9895 -0.0324,7.35 -1.255,8.8784 -8.5215,9.3215 a 139.9649,139.9649 0 0 1 -16.9776,0.01 c -7.3262,-0.4456 -8.59,-1.9751 -8.6025,-9.26 q -0.052,-29.7397 -0.0111,-59.4792 z m 34.3328,-23.9334 h -0.0354 c 0,4.3188 -0.0764,8.6395 0.024,12.956 0.0816,3.5058 1.9357,5.752 5.5049,5.81 6.636,0.1086 13.5217,0.9847 19.8327,-0.4828 4.4906,-1.0443 9.8737,-4.5175 11.97,-8.4475 7.07,-13.2515 -1.3969,-27.639 -16.5137,-28.3979 -4.8046,-0.2412 -9.6322,-0.0729 -14.4485,-0.0212 -3.9974,0.0429 -6.2177,2.1013 -6.3126,6.1271 -0.0976,4.1503 -0.0214,8.3047 -0.0214,12.4564 z" />
        <path
           style="fill:#00334c"
           id="path8"
           d="m 139.63,70.9446 q 0.001,-29.2329 0.009,-58.4658 c 0.01,-8.1252 1.4077,-9.753 9.4214,-10.1356 a 153.4877,153.4877 0 0 1 16.48,0.0591 c 6.5142,0.3908 8.12,2.2553 8.1727,8.7649 0.0788,9.66 -0.005,19.322 0.042,28.9828 0.0472,9.6451 2.1422,11.7792 11.7607,11.8545 9.4939,0.0743 18.9888,0.0343 28.4832,0.0218 7.4031,-0.01 9.7229,-2.2176 9.8224,-9.8232 0.1286,-9.826 0.0163,-19.6549 0.0553,-29.4823 0.03,-7.6208 2.3857,-10.1518 10.1023,-10.4262 5.4888,-0.1952 10.9914,0.0309 16.4874,-0.0032 4.9828,-0.0309 7.2222,2.7414 7.67,7.3569 0.1443,1.4874 0.1064,2.9951 0.1066,4.4936 q 0.007,56.9666 -6e-4,113.9331 c -0.003,10.08 -1.5309,11.6508 -11.47,11.7719 -4.4962,0.0548 -9.0076,0.1937 -13.4879,-0.0891 -7.24,-0.457 -9.3541,-2.8056 -9.386,-10.047 -0.0574,-12.9922 -0.008,-25.9848 -0.0544,-38.9771 -0.0269,-7.5406 -1.1628,-8.6608 -8.7435,-8.6673 -11.16,-0.01 -22.3209,-0.0458 -33.4791,0.1026 -6.4862,0.0863 -7.8153,1.5454 -7.8447,8.13 -0.06,13.3253 -0.004,26.6511 -0.0516,39.9765 -0.0262,7.3131 -1.321,8.9233 -8.5162,9.3742 a 139.7945,139.7945 0 0 1 -16.9738,0.0208 c -7.3156,-0.4335 -8.5447,-1.94 -8.59,-9.261 -0.0531,-8.4947 -0.0152,-16.99 -0.0157,-25.485 q -9e-4,-16.9899 6e-4,-33.9799 z" />
        <path
           style="fill:#00334c"
           id="path10"
           d="m 769.1262,139.8582 c -13.496,0.006 -26.9922,0.0376 -40.488,-0.007 -7.2524,-0.0239 -10.9944,-3.7971 -10.997,-11.0234 q -0.0208,-57.733 0,-115.466 C 717.6438,6.13 721.4144,2.25 728.5741,2.24 q 39.9882,-0.0545 79.9765,-0.0018 c 6.6428,0.0078 10.2393,3.4342 10.01,10.1422 a 80.7573,80.7573 0 0 1 -1.91,15.9884 c -0.853,3.561 -4.2195,4.4859 -7.9894,4.442 -14.9935,-0.1744 -29.99,-0.09 -44.986,-0.0608 -9.5417,0.0184 -12.0021,2.3089 -12.0167,11.0249 -0.0192,11.4324 2.929,15.0853 12.3371,15.1307 11.1631,0.0539 22.3273,0.1222 33.4894,0.015 4.4037,-0.0423 6.5139,1.7461 6.3889,6.2174 -0.1071,3.8292 -0.13,7.6667 -0.009,11.4948 0.1249,3.9694 -1.5532,5.7853 -5.613,5.7891 -11.4941,0.0106 -22.9879,0.2023 -34.4821,0.2935 -9.471,0.0751 -11.8392,2.351 -12.0965,11.7243 -0.3645,13.28 1.1188,14.7724 14.6989,14.7756 14.6624,0.004 29.3249,-0.0338 43.9871,0.0191 8.9823,0.0324 10.9354,2.009 11.0094,10.8254 0.0252,2.9989 0.0141,5.9982 0.004,8.9973 -0.0267,8.1369 -2.3828,10.67 -10.759,10.7561 -13.8278,0.1426 -27.6581,0.0391 -41.4874,0.045 z" />
        <path
           style="fill:#00334c"
           id="path12"
           d="m 400.8143,139.7928 c -5.86,-0.2493 -12.4057,1.4113 -16.6054,-4.3542 a 27.4241,27.4241 0 0 1 -4.623,-9.5892 c -1.1557,-4.9685 -3.8007,-8 -8.7037,-8.1016 -14.32,-0.2962 -28.6617,-0.6032 -42.9653,-0.0869 -5.5529,0.2 -8.1231,5.3108 -9.5732,10.326 -2.808,9.7117 -5.5939,11.8705 -15.8273,11.8774 -4.3331,0.003 -8.6686,0.0675 -12.9985,-0.0562 -4.3886,-0.1254 -6.3059,-2.2852 -5.926,-6.7 a 17.5443,17.5443 0 0 1 1.2365,-5.334 c 2.9232,-6.8264 6.2327,-13.4938 8.9826,-20.3863 2.9327,-7.3507 5.2425,-14.9482 8.1042,-22.3294 2.921,-7.5342 6.2,-14.9293 9.2883,-22.3992 2.332,-5.64 4.7519,-11.25 6.8788,-16.9683 2.8243,-7.5932 5.3039,-15.3146 8.1187,-22.9116 1.9475,-5.2563 3.75,-10.6628 6.5363,-15.4694 a 10.5088,10.5088 0 0 1 7.2918,-4.6136 146.8982,146.8982 0 0 1 20.8014,0.8612 6.3,6.3 0 0 1 4.2414,3.0506 c 2.5191,5.0015 4.62,10.2173 6.793,15.3885 3.1292,7.4478 6.1835,14.9271 9.2676,22.3939 2.523,6.1083 5.07,12.2071 7.5558,18.33 1.9225,4.7348 3.8759,9.4615 5.6225,14.2621 2.7644,7.5981 5.15,15.34 8.101,22.8625 2.827,7.2073 6.34,14.1443 9.2181,21.3334 a 49.9271,49.9271 0 0 1 3.5747,12.427 c 0.4191,3.54 -2.32,5.7869 -5.8976,6.1326 -2.8063,0.2719 -5.66,0.0547 -8.4927,0.0547 z M 348.4334,89.8805 v -0.2041 c 3.1539,0 6.3495,0.3212 9.4514,-0.08 3.9788,-0.5151 6.349,-2.3967 4.898,-7.1478 -2.9859,-9.7768 -5.6575,-19.6493 -8.5026,-29.47 -0.9513,-3.2836 -3.0063,-4.8273 -5.6216,-1.8535 a 40.0207,40.0207 0 0 0 -6.3578,9.6669 c -2.0326,4.4637 -2.9827,9.4129 -4.9259,13.9262 -4.7,10.9158 -2.1265,15.158 9.5627,15.1622 q 0.7481,4e-4 1.4958,1e-4 z" />
        <path
           style="fill:#00334c"
           id="path14"
           d="m 993.5492,70.7628 q 0,-28.98 0.01,-57.9591 c 0.009,-6.7564 3.6416,-10.5211 10.3877,-10.5491 16.3214,-0.0677 32.6639,-0.4926 48.9562,0.2034 7.8788,0.3366 16.2,1.6548 23.3237,4.7923 5.8768,2.5883 11.0494,7.8969 15.1967,13.0719 10.7167,13.3723 9.6648,28.9339 5.3778,44.1274 -2.0846,7.3885 -7.9716,12.9449 -14.0946,17.9852 -8.5629,7.0487 -18.7069,6.9394 -28.7552,7.6 -4.1462,0.2724 -8.3245,0.0583 -12.4882,0.0677 -10.5033,0.0239 -13.837,3.2891 -13.8575,13.6168 -0.017,8.6605 0.033,17.3213 -0.019,25.9816 -0.045,7.6428 -2.5417,10.0963 -10.1909,10.1523 q -5.9956,0.0439 -11.9916,0.01 c -8.4143,-0.0379 -11.848,-3.4034 -11.8522,-11.64 q -0.0149,-28.7307 -0.003,-57.4604 z m 34.07,-24.0024 c 0,2.159 -0.059,4.32 0.011,6.4768 0.24,7.4323 3.7716,10.9968 11.0811,11.0884 3.4838,0.0437 7.0625,0.3569 10.4347,-0.2963 5.5272,-1.0706 11.7559,-2.6022 13.9014,-8.2529 5.504,-14.4961 -0.6965,-26.0927 -17.1942,-26.7237 -16.8168,-0.6427 -18.2518,0.983 -18.2341,17.7073 z" />
        <path
           style="fill:#00334c"
           id="path16"
           d="m 687.749,105.4969 c 0,4.3319 0.0136,8.6638 -0.003,12.9957 -0.0326,8.57 -3.147,14.0755 -11.1738,16.5462 a 214.0423,214.0423 0 0 1 -27.6087,6.3642 c -13.6379,2.2818 -26.8948,-1.2991 -38.8332,-6.9154 a 69.3217,69.3217 0 0 1 -33.84,-33.3947 c -8.06,-16.6982 -7.553,-33.7128 -3.8,-50.575 2.05,-9.2107 7.807,-17.6976 14.2083,-25.2952 A 59.7723,59.7723 0 0 1 609.55,8.1578 c 16.34,-6.6392 33.3958,-12.0857 51.1912,-4.0842 6.3178,2.8407 12.6486,5.657 19.0344,8.3394 2.4584,1.0327 3.0959,2.5666 1.65,4.6378 -4.7189,6.7576 -9.49,13.4825 -14.4052,20.0975 -2.1011,2.8275 -4.6447,2.4033 -7.4308,0.5331 -9.9441,-6.6748 -27.9908,-5.8048 -38.2412,0.49 -15.3741,9.4408 -18.3442,23.3139 -16.7461,39.8215 1.36,14.0438 9.8727,22.7922 21.183,28.5284 7.8882,4.0007 17.3092,3.0761 25.9722,0.8405 1.6067,-0.4146 3.2918,-3.68 3.4949,-5.77 0.5458,-5.6172 0.3362,-11.31 0.3738,-16.9736 0.0267,-4.0248 1.6608,-6.1251 6.0165,-6.005 5.49,0.1514 10.9919,-0.1764 16.4873,-0.1293 6.4236,0.0551 9.3455,2.9073 9.5568,9.5206 0.1861,5.8254 0.0389,11.6614 0.0389,17.4928 z" />
        <path
           style="fill:#00334c"
           id="path18"
           d="m 73.6413,142.3752 c -19.1941,-1.1851 -33.6577,-6.65 -47.034,-16.2135 A 64.1628,64.1628 0 0 1 3.4746,95.393 C 0.2284,86.4682 0.7874,76.106 0.0442,66.3543 -0.204,63.0977 0.65,59.7289 1.1994,56.4448 A 57.8339,57.8339 0 0 1 17.7958,24.4342 C 24.0478,18.239 30.9128,11.637 38.8085,8.3388 55.39,1.4125 72.7736,-4.1383 90.8924,4.1595 c 5.9949,2.7455 11.9839,5.5135 18.0658,8.0555 2.7982,1.17 3.7576,2.6642 1.9483,5.2634 -4.5266,6.5025 -9.1059,12.9684 -13.68,19.4377 -2.352,3.3266 -5.0674,3.019 -8.2034,1.0142 -10.381,-6.6364 -21.9865,-6.3992 -32.7159,-2.8087 -15.9346,5.3324 -25.292,25.016 -22.2578,41.8176 1.2364,6.8464 2.9482,13.1478 7.5217,18.5332 7.1043,8.3654 15.6574,13.839 27.0128,13.2244 7.031,-0.3806 14.2236,0.2325 20.4495,-4.825 3.8976,-3.1662 7.7351,-1.4305 11.5849,3.9789 q 5.032,7.0705 9.9476,14.2238 c 3.04,4.4028 2.4,6.2278 -2.6942,8.4341 -5.7477,2.4895 -11.3082,5.5065 -17.2179,7.501 -6.3624,2.1471 -13.035,3.3746 -17.0125,4.3656 z" />
      </g>
    </g>
  </g>
</svg>
